OpenSim_Sub06_EMGStiffKnee_GRF.mot
version=1
nRows=58
nColumns=19
inDegrees=no
endheader
time	lFx	lFy	lFz	lCOPx	lCOPy	lCOPz	rFx	rFy	rFz	rCOPx	rCOPy	rCOPz	lMx	lMy	lMz	rMx	rMy	rMz
0	-7.23799879	632.43262806	71.98165368	0.88663606	0	-0.69151684	-2.35180248	6.46495101	-4.81564636	-0.00000341	0	0.00000138	0	-7.46649364	0	0	0.00000682	-0.00000000
0.01000000	-3.72209827	630.48894795	74.68092335	0.88901174	0	-0.69037608	-0.89759861	2.85015726	-1.73166442	-0.00001926	0	0.00000714	0	-7.62605949	0	0	0.00002688	0.00000000
0.02000000	-0.59750495	630.53276518	75.91105159	0.88760151	0	-0.68984423	-0.10451436	0.80458466	-0.03698164	-0.00004599	0	0.00001662	0	-7.64577933	0	0	0.00005634	-0.00000000
0.03000000	2.06827415	631.45147162	76.22855828	0.88306358	0	-0.68976449	0.18540691	0.13829303	0.48941680	-0.00006766	0	0.00002375	0	-7.65138305	0	0	0.00007042	-0.00000000
0.04000000	4.51656657	632.37061295	76.43396079	0.87712388	0	-0.68993142	0.23322207	0.20479934	0.48587125	-0.00003257	0	0.00000963	0	-7.71462964	0	0	0.00000176	-0.00000000
0.05000000	6.99546328	632.78822006	77.03716765	0.87081299	0	-0.69017376	0.17840213	0.44763938	0.35911429	0.00015691	0	-0.00006061	0	-7.80403654	0	0	-0.00026163	-0.00000000
0.06000000	9.84298103	632.41409655	78.02564876	0.86442314	0	-0.69045637	0.09426550	0.65766648	0.24503230	0.00060350	0	-0.00022189	0	-7.90310631	0	0	-0.00080698	-0.00000000
0.07000000	13.21068327	631.33816648	79.28054182	0.85805464	0	-0.69081053	0.03768871	0.79306264	0.21083307	0.00125101	0	-0.00044890	0	-8.12248046	0	0	-0.00147636	-0.00000000
0.08000000	17.03832812	630.10624354	80.65738299	0.85182370	0	-0.69123634	0.01938430	0.87462299	0.21412207	0.00153829	0	-0.00053177	0	-8.48139250	0	0	-0.00145602	0.00000000
0.09000000	21.12861909	629.45680768	82.01367943	0.84583047	0	-0.69170822	0.01776977	0.82639274	0.18373198	-0.00003827	0	0.00007558	0	-8.89805346	0	0	0.00114444	0.00000000
0.10000000	25.32196044	629.87843172	83.35414287	0.83986161	0	-0.69217806	0.04046606	0.31714486	0.10304587	-0.00595009	0	0.00224759	0	-9.33876023	0	0	0.00902173	0.00000000
0.11000000	29.55618415	631.26459332	84.62924671	0.83355839	0	-0.69258717	0.08537847	-1.19445290	-0.06163732	-0.01805537	0	0.00658848	0	-9.71450693	0	0	0.02325664	-0.00000000
0.12000000	33.76316924	633.04487855	85.82563459	0.82692209	0	-0.69288204	0.07594163	-3.92805360	-0.24481880	-0.03266686	0	0.01163067	0	-9.96263628	0	0	0.03692955	-0.00000000
0.13000000	37.83590675	634.46097695	87.05371584	0.82031289	0	-0.69303703	-0.11992480	-6.85369353	-0.15182917	-0.03145966	0	0.01059388	0	-10.12741702	0	0	0.02477601	-0.00000000
0.14000000	41.77363963	634.50710843	88.21942670	0.81403760	0	-0.69308439	-0.62443802	-5.55764926	0.69894125	0.02763810	0	-0.01169690	0	-10.24287464	0	0	-0.06424603	0.00000000
0.15000000	45.76374253	632.24211167	89.12034197	0.80810920	0	-0.69310361	-1.38712374	9.57036156	2.88228737	0.20383243	0	-0.07594994	0	-10.30614903	0	0	-0.29046748	0
0.16000000	50.02409936	626.99429764	89.68523341	0.80236428	0	-0.69313896	-2.51336807	52.40258222	6.24399722	0.51869505	0	-0.18796721	0	-10.33053697	0	0	-0.64488688	0
0.17000000	54.51288606	618.42409597	89.81985779	0.79669791	0	-0.69315423	-9.02801970	135.31992278	8.90327309	0.84384468	0	-0.29873131	0	-10.28631753	0	0	-0.84917101	0
0.18000000	58.81177617	606.47107834	89.29258599	0.79127983	0	-0.69311288	-27.60928949	254.47707638	5.07111502	1.03622150	0	-0.35923870	0	-10.12327148	0	0	-0.50390456	0
0.19000000	62.31211095	590.89378019	87.73545156	0.78610323	0	-0.69298642	-55.33246711	386.30014818	-9.62208906	1.10752350	0	-0.37721272	0	-9.80348615	0	0	-0.14067354	0
0.20000000	64.43642931	570.84488193	84.54837666	0.78105318	0	-0.69269710	-78.21589093	497.24979045	-28.37889273	1.11626221	0	-0.37443182	0	-9.23242872	0	0	0.12491232	-0.00000000
0.21000000	64.67997119	545.23791496	79.25670679	0.77635086	0	-0.69216284	-89.47269979	558.50359307	-42.99200361	1.10440706	0	-0.36641079	0	-8.34730743	0	0	0.17695149	-0.00000000
0.22000000	62.74745646	513.75181300	71.75350471	0.77245512	0	-0.69134418	-90.23556388	566.00555564	-51.80614833	1.09059622	0	-0.35957221	0	-7.12337751	0	0	0.14877586	0
0.23000000	58.78528457	476.82235090	62.47404583	0.76954872	0	-0.69025546	-84.07626168	539.78192361	-59.00013895	1.07966160	0	-0.35489104	0	-5.60655448	0	0	0.09952451	0
0.24000000	53.48447132	434.82983502	52.20216126	0.76740195	0	-0.68890408	-74.97293002	505.40117167	-67.78302783	1.07164555	0	-0.35150655	0	-3.86585903	0	0	-0.08065801	-0.00000000
0.25000000	47.61107882	388.45123023	41.96137154	0.76514346	0	-0.68729156	-65.81203979	479.16947537	-78.14517264	1.06581071	0	-0.34864068	0	-2.04411452	0	0	-0.44964781	-0.00000000
0.26000000	41.74814733	338.71163235	32.65787578	0.76269800	0	-0.68574671	-57.95659618	466.14006050	-87.44359135	1.06176289	0	-0.34607109	0	-0.40041496	0	0	-0.82728208	0
0.27000000	35.93619566	287.09682274	24.89578195	0.76122228	0	-0.68524195	-51.72125657	465.14922192	-92.43507373	1.05869345	0	-0.34391705	0	0.91007836	0	0	-1.06502831	0
0.28000000	29.71668512	235.69981624	18.96842364	0.76179426	0	-0.68715142	-46.96607056	474.15291323	-93.20126048	1.05574599	0	-0.34250068	0	1.86952681	0	0	-1.23209456	0
0.29000000	22.79326740	187.07231590	14.79826580	0.76463637	0	-0.69198834	-43.63621281	491.76104816	-90.84399158	1.05233109	0	-0.34176648	0	2.48753133	0	0	-1.18153444	0
0.30000000	15.13852461	143.46476418	12.00884482	0.76588516	0	-0.69664854	-41.41342154	515.55247160	-86.92250166	1.04813677	0	-0.34142184	0	2.79292249	0	0	-0.93401992	0
0.31000000	6.94044887	106.44940407	10.27110423	0.75519090	0	-0.69083455	-39.84335312	541.91510220	-83.02755174	1.04365881	0	-0.34114148	0	2.74279373	0	0	-0.60631642	0.00000000
0.32000000	-1.33791876	76.81911067	9.21328636	0.71366479	0	-0.65442004	-38.69697563	567.54607143	-80.20401535	1.03946783	0	-0.34059204	0	2.37158877	0	0	-0.27970669	0
0.33000000	-8.84649864	54.20876028	8.56372875	0.62157310	0	-0.56472104	-37.82057730	590.48787435	-79.28367225	1.03567034	0	-0.33964056	0	1.74111949	0	0	-0.08365652	-0.00000000
0.34000000	-14.11338420	36.81785297	7.96967784	0.47864836	0	-0.42345060	-36.92304116	609.96544785	-80.72208121	1.03201885	0	-0.33836813	0	1.09836510	0	0	-0.03356684	0.00000000
0.35000000	-15.47183660	22.39716852	6.65740074	0.30999439	0	-0.26265548	-35.74924538	626.33755774	-84.06909644	1.02824896	0	-0.33691094	0	0.62630270	0	0	-0.09585939	-0.00000000
0.36000000	-12.79271221	10.22391905	4.41745641	0.14869859	0	-0.11884832	-34.27933874	640.29719841	-88.37246217	1.02425249	0	-0.33539760	0	0.25478943	0	0	-0.24038820	-0.00000000
0.37000000	-9.12616673	2.21663525	2.53138245	0.04063042	0	-0.02824453	-32.71350643	652.06890143	-92.47057694	1.01999833	0	-0.33389420	0	0.04434357	0	0	-0.40576303	0
0.38000000	-6.83805492	-1.09954119	1.95102652	0.00415365	0	0.00206996	-31.32609043	661.37660409	-95.31299018	1.01564609	0	-0.33245050	0	-0.02565702	0	0	-0.59289304	0
0.39000000	-5.91807472	-1.64844525	1.73478930	0.02079964	0	-0.00810945	-30.10727475	667.63176921	-96.50473848	1.01110187	0	-0.33115160	0	-0.02290961	0	0	-0.75645842	0
0.40000000	-5.78385398	-1.16899679	1.89567402	0.06166749	0	-0.03518248	-28.85598034	670.73700748	-96.25531250	1.00647015	0	-0.33000761	0	-0.00457081	0	0	-0.83358442	0
0.41000000	-5.95500268	-0.62207075	2.12293289	0.08217982	0	-0.04934589	-27.46864310	670.80016343	-94.93507722	1.00197749	0	-0.32900099	0	-0.00756705	0	0	-0.85104783	0
0.42000000	-6.15788689	-0.31714168	2.23553565	0.05902043	0	-0.03598688	-25.90007525	668.15959577	-92.94186745	0.99764068	0	-0.32810155	0	-0.01194080	0	0	-0.83095989	0
0.43000000	-6.30878672	-0.23740186	2.39923655	0.02599914	0	-0.01605342	-24.07605128	663.25406898	-90.71050524	0.99310215	0	-0.32727871	0	-0.00768872	0	0	-0.72217306	0.00000000
0.44000000	-6.39452318	-0.26742386	2.40088589	0.00540823	0	-0.00345958	-21.87291776	656.71161242	-88.61208841	0.98804790	0	-0.32652467	0	-0.00305335	0	0	-0.53375871	-0.00000000
0.45000000	-6.43096647	-0.28277933	2.38864633	-0.00249377	0	0.00144282	-19.35421756	649.51141473	-86.95410201	0.98261864	0	-0.32586154	0	-0.00043540	0	0	-0.32445801	0.00000000
0.46000000	-6.44486973	-0.26283019	2.32433172	-0.00343796	0	0.00207627	-16.67464935	642.50703611	-85.85561967	0.97722583	0	-0.32528309	0	0.00045402	0	0	-0.14582406	0
0.47000000	-6.46147911	-0.19835391	2.28074284	-0.00211570	0	0.00129440	-13.97866609	636.09380033	-85.24297479	0.97196687	0	-0.32471505	0	0.00048108	0	0	-0.04337971	0.00000000
0.48000000	-6.48681497	-0.17677376	2.25414218	-0.00080006	0	0.00049663	-11.21065867	630.56302423	-85.11023699	0.96661603	0	-0.32411432	0	0.00026829	0	0	0.03141369	0
0.49000000	-6.51909397	-0.22855468	2.19687524	-0.00008748	0	0.00005929	-8.25706836	626.38199738	-85.44852643	0.96108735	0	-0.32348189	0	0.00008937	0	0	0.10957712	0.00000000
0.50000000	-6.57349390	-0.27976913	2.21403773	0.00014036	0	-0.00008311	-5.17333015	623.94985345	-86.02784407	0.95542094	0	-0.32288067	0	0.00000099	0	0	0.14496681	0
0.51000000	-6.62095461	-0.32238841	2.18451659	0.00013624	0	-0.00008264	-2.00549666	623.27908614	-86.62123549	0.94966390	0	-0.32237384	0	-0.00002315	0	0	0.13681025	0
0.52000000	-6.66444740	-0.34426022	2.15159740	0.00007297	0	-0.00004480	1.16632276	624.15092461	-87.11403513	0.94386318	0	-0.32197785	0	-0.00001874	0	0	0.12723670	0
0.53000000	-6.72293862	-0.27511217	2.16280103	0.00002341	0	-0.00001464	4.37884470	626.07693605	-87.37787272	0.93792277	0	-0.32168956	0	-0.00000701	0	0	0.11554133	0
0.54000000	-6.79997282	-0.17250823	2.15823469	0.00000075	0	-0.00000067	7.65496186	628.65882047	-87.38181662	0.93192768	0	-0.32150889	0	0.00000469	0	0	0.15142419	0.00000000
0.55000000	-6.87563558	-0.09022131	2.14456359	-0.00000394	0	0.00000234	10.90242421	631.76284289	-87.17726781	0.92594684	0	-0.32139201	0	0.00001455	0	0	0.25431695	-0.00000000
0.56000000	-6.93107620	-0.04945306	2.12677593	-0.00000264	0	0.00000163	14.03851766	635.22416248	-86.86241848	0.91985420	0	-0.32129298	0	0.00001731	0	0	0.38705476	0
0.57000000	-6.96452001	-0.04202643	2.08422360	-0.00000500	0	0.00000311	17.04363577	638.73008520	-86.57166620	0.91357313	0	-0.32119675	0	-0.00000285	0	0	0.56476093	0
